<svg width="25" height="24" viewBox="0 0 25 24" fill="none" xmlns="http://www.w3.org/2000/svg">
<g clip-path="url(#clip0_1401_2230)">
<path d="M7.41822 3.38565C8.90742 2.50524 10.6447 2 12.5 2C18.0228 2 22.5 6.47715 22.5 12C22.5 12.0331 22.4998 12.0662 22.4995 12.0993M3.88114 6.92585C3.00352 8.41335 2.5 10.1479 2.5 12C2.5 16.6596 5.68693 20.5748 10 21.685M21.2076 16.9206C19.8872 19.2522 17.6574 21.001 15 21.685M14.5893 6.37378C13.9387 6.13207 13.2348 6 12.5 6C9.18629 6 6.5 8.68629 6.5 12C6.5 12.7387 6.63351 13.4463 6.87772 14.0999M18.1251 9.90767C18.3675 10.5591 18.5 11.2641 18.5 12C18.5 15.3137 15.8137 18 12.5 18C11.7701 18 11.0707 17.8697 10.4237 17.631M12.5 10V14" stroke="#216DF6" stroke-width="2" stroke-linecap="round" stroke-linejoin="round"/>
</g>
<defs>
<clipPath id="clip0_1401_2230">
<rect width="24" height="24" fill="white" transform="translate(0.5)"/>
</clipPath>
</defs>
</svg>
